<svg width="72" height="49" viewBox="0 0 72 49" fill="none" xmlns="http://www.w3.org/2000/svg">
<g filter="url(#filter0_b_37_573)">
<g filter="url(#filter1_b_37_573)">
<rect x="8" y="10.8096" width="64" height="24" rx="12" fill="black" fill-opacity="0.1"/>
<rect x="8.5" y="11.3096" width="63" height="23" rx="11.5" stroke="black" stroke-opacity="0.5"/>
</g>
<g filter="url(#filter2_d_37_573)">
<rect x="8" y="6.80963" width="32" height="32" rx="16" fill="white" shape-rendering="crispEdges"/>
<path d="M29.5 21.8096V18.8096" stroke="black" stroke-linecap="round" stroke-linejoin="round"/>
<path d="M31 20.3096H28" stroke="black" stroke-linecap="round" stroke-linejoin="round"/>
<path d="M26.5 16.3096V18.3096" stroke="black" stroke-linecap="round" stroke-linejoin="round"/>
<path d="M27.5 17.3096H25.5" stroke="black" stroke-linecap="round" stroke-linejoin="round"/>
<path d="M29.5436 24.3471C28.5619 24.6224 27.5247 24.6314 26.5384 24.3733C25.5521 24.1151 24.6522 23.5991 23.9313 22.8782C23.2104 22.1572 22.6944 21.2574 22.4362 20.2711C22.178 19.2848 22.1871 18.2476 22.4623 17.2659C21.4945 17.5353 20.6141 18.0535 19.9089 18.769C19.2037 19.4845 18.6983 20.3723 18.4429 21.344C18.1876 22.3156 18.1913 23.3372 18.4537 24.3069C18.716 25.2767 19.2279 26.1608 19.9383 26.8712C20.6487 27.5816 21.5328 28.0934 22.5025 28.3558C23.4723 28.6181 24.4939 28.6218 25.4655 28.3665C26.4371 28.1112 27.3249 27.6058 28.0404 26.9005C28.7559 26.1953 29.2742 25.315 29.5436 24.3471Z" stroke="black" stroke-linecap="round" stroke-linejoin="round"/>
</g>
</g>
<defs>
<filter id="filter0_b_37_573" x="4" y="-1.19037" width="72" height="48" filterUnits="userSpaceOnUse" color-interpolation-filters="sRGB">
<feFlood flood-opacity="0" result="BackgroundImageFix"/>
<feGaussianBlur in="BackgroundImageFix" stdDeviation="2"/>
<feComposite in2="SourceAlpha" operator="in" result="effect1_backgroundBlur_37_573"/>
<feBlend mode="normal" in="SourceGraphic" in2="effect1_backgroundBlur_37_573" result="shape"/>
</filter>
<filter id="filter1_b_37_573" x="0" y="2.80963" width="80" height="40" filterUnits="userSpaceOnUse" color-interpolation-filters="sRGB">
<feFlood flood-opacity="0" result="BackgroundImageFix"/>
<feGaussianBlur in="BackgroundImageFix" stdDeviation="4"/>
<feComposite in2="SourceAlpha" operator="in" result="effect1_backgroundBlur_37_573"/>
<feBlend mode="normal" in="SourceGraphic" in2="effect1_backgroundBlur_37_573" result="shape"/>
</filter>
<filter id="filter2_d_37_573" x="0" y="0.809631" width="48" height="48" filterUnits="userSpaceOnUse" color-interpolation-filters="sRGB">
<feFlood flood-opacity="0" result="BackgroundImageFix"/>
<feColorMatrix in="SourceAlpha" type="matrix" values="0 0 0 0 0 0 0 0 0 0 0 0 0 0 0 0 0 0 127 0" result="hardAlpha"/>
<feOffset dy="2"/>
<feGaussianBlur stdDeviation="4"/>
<feComposite in2="hardAlpha" operator="out"/>
<feColorMatrix type="matrix" values="0 0 0 0 0 0 0 0 0 0 0 0 0 0 0 0 0 0 0.25 0"/>
<feBlend mode="normal" in2="BackgroundImageFix" result="effect1_dropShadow_37_573"/>
<feBlend mode="normal" in="SourceGraphic" in2="effect1_dropShadow_37_573" result="shape"/>
</filter>
</defs>
</svg>
